# xmcd
#
# Track frame offsets:
# 150
# 11113
# 24038
# 45200
# 62263
# 83113
# 99475
# 114175
# 128138
# 141713
#
# Disc length: 2144 seconds
#
#
# Revision: 2
# Processed by: cddbd v1.4PL0 Copyright (c) Steve Scherf et al.
# Submitted via: FreeRIP 2.53 
#
DISCID=71085e0a
DTITLE=Kris Kristofferson - The Best of Kris Kristofferson
DYEAR=1900
DGENRE=
TTITLE0=Help Me Make It Through The Night
TTITLE1=Once More With Feeling
TTITLE2=To Beat The Devil
TTITLE3=Loving Her Was Easier(Than Anything I'll Ever Do Again
TTITLE4=Living Legend
TTITLE5=I Got A Life Of My Own
TTITLE6=The Taker
TTITLE7=Jody And The Kid
TTITLE8=Duvalier's Dream
TTITLE9=Me And Bobby Mcgee
EXTD=
EXTT0=
EXTT1=
EXTT2=
EXTT3=
EXTT4=
EXTT5=
EXTT6=
EXTT7=
EXTT8=
EXTT9=
PLAYORDER=
